<?xml version="1.0" standalone="no"?>
<!DOCTYPE svg PUBLIC "-//W3C//DTD SVG 20010904//EN"
 "http://www.w3.org/TR/2001/REC-SVG-20010904/DTD/svg10.dtd">
<svg version="1.0" xmlns="http://www.w3.org/2000/svg"
 width="362.000000pt" height="362.000000pt" viewBox="0 0 362.000000 362.000000"
 preserveAspectRatio="xMidYMid meet">
<metadata>
Created by potrace 1.14, written by Peter Selinger 2001-2017
</metadata>
<g transform="translate(0.000000,362.000000) scale(0.100000,-0.100000)"
fill="#000000" stroke="none">
<path d="M1640 2684 c-14 -2 -59 -9 -100 -15 -81 -12 -112 -20 -265 -73 -114
-39 -169 -63 -240 -106 -27 -16 -57 -33 -65 -37 -40 -19 -179 -120 -206 -149
-17 -19 -35 -34 -41 -34 -6 0 -37 -30 -69 -66 -33 -36 -66 -74 -75 -83 -20
-23 -30 -49 -20 -55 9 -6 41 29 41 44 0 6 4 10 9 10 5 0 38 27 73 61 35 33 74
68 88 77 14 9 50 35 80 57 131 98 290 179 461 235 52 17 103 35 114 39 11 5
43 12 70 15 28 3 79 10 115 16 148 22 439 6 535 -30 53 -20 113 -39 145 -45
73 -15 311 -138 333 -172 4 -7 14 -13 22 -13 8 0 20 -9 27 -21 7 -11 28 -29
46 -41 18 -11 41 -35 50 -53 9 -18 27 -51 40 -73 32 -60 52 -146 52 -229 0
-64 -5 -83 -34 -141 -113 -224 -426 -375 -594 -287 -26 13 -55 31 -65 39 -22
17 -57 127 -57 181 0 22 -9 59 -19 81 -10 23 -22 56 -26 73 -4 18 -26 51 -53
78 -91 90 -248 137 -495 150 -110 5 -136 3 -225 -18 -82 -20 -103 -28 -111
-46 -6 -13 -20 -23 -31 -23 -13 0 -24 -10 -30 -26 -6 -15 -19 -38 -29 -53 -10
-14 -26 -57 -35 -96 -15 -64 -16 -76 -2 -136 9 -37 23 -79 31 -95 8 -16 15
-34 15 -41 0 -12 73 -127 112 -177 144 -183 350 -341 518 -399 52 -18 176 -50
270 -69 83 -17 438 -16 535 1 148 26 333 74 415 108 47 19 99 40 115 47 17 6
48 23 70 37 22 14 49 29 59 32 53 20 296 224 296 248 0 5 14 22 30 39 17 17
30 35 30 41 0 10 11 25 41 57 9 9 19 35 22 57 4 22 4 33 0 25 -3 -8 -9 -17
-12 -20 -3 -3 -19 -23 -34 -46 -15 -22 -36 -50 -47 -62 -11 -12 -20 -25 -20
-29 0 -14 -153 -159 -206 -196 -67 -46 -201 -127 -210 -127 -4 0 -26 -9 -48
-19 -74 -35 -210 -76 -346 -103 -85 -16 -378 -17 -500 0 -110 15 -217 37 -275
58 -23 8 -48 14 -58 14 -20 0 -106 44 -172 89 -25 17 -48 31 -51 31 -12 0 -97
102 -116 138 -25 49 -35 127 -18 147 17 20 66 19 98 -2 82 -54 250 -146 302
-165 101 -38 421 -46 525 -14 28 9 58 16 68 16 11 0 33 6 50 14 18 8 58 26 91
41 71 31 215 126 238 157 10 13 34 44 55 70 58 71 95 175 101 281 5 107 -12
179 -70 287 -42 79 -64 106 -153 190 -39 36 -201 136 -280 172 -215 97 -433
139 -710 137 -82 -1 -161 -3 -175 -5z"/>
<path d="M511 2034 c-19 -19 -21 -28 -12 -37 9 -9 13 -7 17 10 3 12 12 24 20
27 15 6 20 26 7 26 -5 0 -19 -12 -32 -26z"/>
<path d="M467 1970 c-3 -11 -1 -23 4 -26 5 -3 9 6 9 20 0 31 -6 34 -13 6z"/>
<path d="M442 1920 c0 -14 2 -19 5 -12 2 6 2 18 0 25 -3 6 -5 1 -5 -13z"/>
<path d="M411 1873 c0 -25 1 -26 9 -8 12 27 12 35 0 35 -5 0 -10 -12 -9 -27z"/>
<path d="M382 1810 c0 -14 2 -19 5 -12 2 6 2 18 0 25 -3 6 -5 1 -5 -13z"/>
<path d="M351 1764 c0 -11 3 -14 6 -6 3 7 2 16 -1 19 -3 4 -6 -2 -5 -13z"/>
</g>
</svg>
